#!OML:ASF X:\für Bonn\!DataBase\2005_08_11_Bastian_Final\c3d\Bastian.ASF
:FULLY-SPECIFIED
:DEGREES
176
root -0.638164 15.8671 -19.32 163.238 1.40755 -179.128
lowerback 23.8464 -2.62783 -6.07378
upperback 10.695 -2.32684 -0.944878
thorax -1.17696 -0.298666 2.96051
lowerneck -15.0874 -3.3672 -1.69662
upperneck -7.8363 -2.48875 12.5728
head 0.308191 -0.367908 4.38533
rclavicle -9.34288e-015 1.74931e-014
rhumerus -47.0899 25.7617 -99.3831
rradius 110.254
rwrist 10.0799
rhand -20.8947 14.4671
rfingers 7.12502
rthumb 5.47598 -15.4422
lclavicle -9.34288e-015 1.74931e-014
lhumerus -11.7398 -44.697 91.7012
lradius 116.514
lwrist 42.5369
lhand -3.91298 -13.0977
lfingers 7.12502
lthumb 21.8375 15.6901
rfemur -32.6016 -2.53239 27.9746
rtibia 55.3741
rfoot -183.764 -184.901
rtoes -11.328
lfemur 8.99922 11.8896 -12.7105
ltibia 54.6346
lfoot -28.2843 -13.6918
ltoes -10.6781
177
root -0.596293 15.906 -19.138 163.433 1.46566 -179.03
lowerback 24.0423 -2.56158 -6.01329
upperback 10.7173 -2.21747 -0.96277
thorax -1.26183 -0.230313 2.88595
lowerneck -15.2235 -3.44228 -1.71853
upperneck -8.02971 -2.50292 12.9749
head 0.297018 -0.357099 4.11992
rclavicle 3.00165e-014 1.11319e-014
rhumerus -46.6961 26.6556 -99.145
rradius 109.923
rwrist 10.4144
rhand -20.8152 14.4009
rfingers 7.12502
rthumb 5.55274 -15.5064
lclavicle 3.00165e-014 1.11319e-014
lhumerus -13.2164 -44.1939 92.6697
lradius 116.148
lwrist 42.5745
lhand -3.87963 -13.407
lfingers 7.12502
lthumb 21.8695 15.3771
rfemur -32.7013 -2.6397 27.8519
rtibia 57.6726
rfoot -185.242 -185.73
rtoes -8.11134
lfemur 7.81947 11.8696 -12.6336
ltibia 54.9728
lfoot -28.0199 -13.558
ltoes -10.9265
178
root -0.552149 15.9495 -18.9582 163.637 1.47246 -178.945
lowerback 24.1948 -2.49429 -5.96884
upperback 10.7403 -2.10851 -0.976351
thorax -1.32307 -0.164319 2.82362
lowerneck -15.288 -3.51257 -1.74079
upperneck -8.24397 -2.53411 13.037
head 0.247753 -0.360542 4.14233
rclavicle 1.11319e-014 1.43125e-014
rhumerus -46.2053 27.3845 -98.8957
rradius 109.608
rwrist 10.708
rhand -20.5658 14.3487
rfingers 7.12502
rthumb 5.79356 -15.5521
lclavicle 1.11319e-014 1.43125e-014
lhumerus -14.6303 -43.7759 93.5242
lradius 115.774
lwrist 42.71
lhand -4.00653 -13.633
lfingers 7.12502
lthumb 21.7477 15.1653
rfemur -32.713 -2.70495 27.674
rtibia 59.9427
rfoot -186.563 -186.472
rtoes -5.59068
lfemur 6.69055 11.8035 -12.5874
ltibia 55.1722
lfoot -27.5719 -13.4698
ltoes -10.835
179
root -0.506181 15.9993 -18.7819 163.853 1.44822 -178.869
lowerback 24.2808 -2.43076 -5.89753
upperback 10.7688 -1.99613 -0.987614
thorax -1.34784 -0.0980432 2.74595
lowerneck -15.3299 -3.6028 -1.7873
upperneck -8.47062 -2.58995 13.0777
head 0.193076 -0.378145 4.16098
rclavicle -2.46493e-014 -3.65764e-014
rhumerus -45.7737 28.0366 -98.6668
rradius 109.259
rwrist 10.9437
rhand -20.4275 14.347
rfingers 7.12502
rthumb 5.92709 -15.5501
lclavicle -2.46493e-014 -3.65764e-014
lhumerus -16.042 -43.4211 94.3592
lradius 115.406
lwrist 42.954
lhand -4.18506 -13.7479
lfingers 7.12502
lthumb 21.5762 15.0701
rfemur -32.5749 -2.74435 27.4406
rtibia 62.1326
rfoot -187.757 -187.067
rtoes -3.46513
lfemur 5.63634 11.7008 -12.5611
ltibia 55.2388
lfoot -27.0249 -13.3863
ltoes -10.5877
180
root -0.459036 16.0528 -18.6078 164.099 1.37128 -178.769
lowerback 24.3174 -2.38708 -5.75347
upperback 10.7773 -1.90039 -0.997789
thorax -1.37423 -0.0410269 2.63122
lowerneck -15.3578 -3.71353 -1.8912
upperneck -8.664 -2.67336 13.1433
head 0.150302 -0.408999 4.19533
rclavicle 3.1408e-014 2.3059e-014
rhumerus -45.3484 28.5224 -98.4505
rradius 108.938
rwrist 11.2404
rhand -20.2388 14.3601
rfingers 7.12502
rthumb 6.10931 -15.5318
lclavicle 3.1408e-014 2.3059e-014
lhumerus -17.447 -43.1053 95.151
lradius 115.093
lwrist 43.334
lhand -4.47674 -13.7564
lfingers 7.12502
lthumb 21.2961 15.0935
rfemur -32.3165 -2.79782 27.1845
rtibia 64.2316
rfoot -188.775 -187.596
rtoes -2.15957
lfemur 4.60627 11.5214 -12.5429
ltibia 55.1818
lfoot -26.3213 -13.3054
ltoes -10.1142
181
root -0.411022 16.1092 -18.4366 164.352 1.24641 -178.643
lowerback 24.3199 -2.3515 -5.52602
upperback 10.7763 -1.79943 -1.0136
thorax -1.40012 0.0199755 2.46124
lowerneck -15.3513 -3.83201 -1.93729
upperneck -8.87274 -2.77652 13.1535
head 0.0963646 -0.454077 4.20207
rclavicle 2.92213e-014 -1.19271e-014
rhumerus -44.9897 28.7869 -98.3227
rradius 108.7
rwrist 11.5211
rhand -19.9315 14.3923
rfingers 7.12502
rthumb 6.40595 -15.4909
lclavicle 2.92213e-014 -1.19271e-014
lhumerus -18.8311 -42.8755 95.8859
lradius 114.857
lwrist 43.7933
lhand -4.79086 -13.6465
lfingers 7.12502
lthumb 20.9943 15.2372
rfemur -31.8808 -2.8506 26.9172
rtibia 66.1756
rfoot -189.628 -188.148
rtoes -1.37055
lfemur 3.61514 11.2652 -12.534
ltibia 55.0046
lfoot -25.5489 -13.1041
ltoes -9.95107
182
root -0.361017 16.1722 -18.2674 164.623 1.08184 -178.54
lowerback 24.2689 -2.32471 -5.29736
upperback 10.7684 -1.71212 -1.03304
thorax -1.40618 0.0716644 2.28907
lowerneck -15.3352 -3.95891 -1.98421
upperneck -9.04375 -2.90379 13.1357
head 0.0531311 -0.513589 4.1989
rclavicle -2.14687e-014 -2.8625e-014
rhumerus -44.6376 28.9433 -98.2399
rradius 108.479
rwrist 11.8569
rhand -19.6138 14.4022
rfingers 7.12502
rthumb 6.7126 -15.4714
lclavicle -2.14687e-014 -2.8625e-014
lhumerus -20.094 -42.687 96.531
lradius 114.642
lwrist 44.2203
lhand -5.15258 -13.4989
lfingers 7.12502
lthumb 20.6468 15.423
rfemur -31.3457 -2.87371 26.6023
rtibia 67.9589
rfoot -190.234 -188.74
rtoes -0.890517
lfemur 2.65624 10.9249 -12.5977
ltibia 54.7123
lfoot -24.7491 -12.7335
ltoes -10.4032
183
root -0.309894 16.2469 -18.1002 164.913 0.86564 -178.414
lowerback 24.1824 -2.31683 -5.01438
upperback 10.7627 -1.63709 -1.06082
thorax -1.39437 0.118409 2.07964
lowerneck -15.3895 -4.08201 -1.95173
upperneck -9.16689 -3.04493 13.0644
head 0.032034 -0.578301 4.16495
rclavicle 2.5842e-014 -1.03368e-014
rhumerus -44.302 28.9396 -98.2053
rradius 108.319
rwrist 12.1904
rhand -19.2313 14.4122
rfingers 7.12502
rthumb 7.08185 -15.4493
lclavicle 2.5842e-014 -1.03368e-014
lhumerus -21.1821 -42.529 97.0208
lradius 114.537
lwrist 44.6239
lhand -5.49283 -13.1563
lfingers 7.12502
lthumb 20.3198 15.8007
rfemur -30.706 -2.91723 26.2842
rtibia 69.5149
rfoot -190.549 -189.356
rtoes -0.854913
lfemur 1.71908 10.4685 -12.6807
ltibia 54.2939
lfoot -23.8248 -12.2616
ltoes -11.0327
